<?xml version="1.0" standalone="no"?>
<!DOCTYPE svg PUBLIC "-//W3C//DTD SVG 20010904//EN"
 "http://www.w3.org/TR/2001/REC-SVG-20010904/DTD/svg10.dtd">
<svg version="1.0" xmlns="http://www.w3.org/2000/svg"
 width="512.000000pt" height="512.000000pt" viewBox="0 0 512.000000 512.000000"
 preserveAspectRatio="xMidYMid meet">
<metadata>
Created by potrace 1.14, written by Peter Selinger 2001-2017
</metadata>
<g transform="translate(0.000000,512.000000) scale(0.100000,-0.100000)"
fill="#000000" stroke="none">
<path d="M1995 5071 c-39 -16 -48 -52 -43 -163 6 -120 15 -143 126 -312 40
-60 72 -113 72 -117 0 -5 -15 -16 -32 -25 -130 -66 -278 -220 -341 -354 -27
-57 -55 -146 -63 -197 -6 -43 -17 -58 -95 -141 -69 -73 -97 -112 -132 -185
-44 -90 -65 -157 -69 -225 -1 -19 -6 -36 -10 -38 -4 -3 -36 25 -70 62 -35 37
-89 95 -120 128 -32 34 -58 66 -58 71 0 10 51 245 104 484 39 170 38 172 -54
242 -19 15 -69 53 -110 85 -226 177 -236 184 -268 184 -30 0 -71 -45 -67 -73
5 -39 15 -53 68 -93 29 -21 57 -43 63 -49 6 -5 61 -48 123 -95 128 -98 121
-77 81 -250 -12 -52 -23 -104 -26 -114 -2 -10 -20 -92 -40 -182 -25 -115 -33
-171 -27 -188 4 -14 58 -78 119 -143 61 -65 124 -133 139 -151 28 -33 28 -35
11 -60 -18 -28 -116 -227 -116 -236 0 -3 -9 -30 -20 -59 l-20 -54 -79 4 c-61
4 -81 1 -93 -11 -9 -8 -84 -118 -168 -243 -84 -125 -160 -235 -169 -244 -9 -9
-54 -26 -101 -38 -47 -12 -92 -24 -100 -26 -8 -2 -90 -24 -181 -48 -91 -25
-175 -50 -187 -56 -25 -13 -42 -41 -42 -70 0 -22 44 -71 63 -71 27 0 612 161
631 174 12 7 92 120 179 250 133 198 162 235 181 234 22 -2 23 -3 10 -63 -14
-65 -22 -117 -34 -210 -9 -67 -5 -421 4 -475 4 -19 14 -73 22 -120 21 -116 65
-266 112 -383 l40 -97 -104 -81 c-58 -45 -111 -91 -118 -102 -8 -12 -17 -49
-21 -82 -3 -33 -8 -73 -11 -90 -2 -16 -6 -46 -8 -65 -11 -91 -18 -147 -22
-170 -2 -14 -9 -63 -14 -110 -15 -120 -17 -131 -33 -149 -8 -9 -73 -85 -145
-169 -73 -84 -134 -163 -138 -176 -9 -39 5 -67 42 -82 51 -21 60 -16 172 116
126 147 176 205 182 210 27 22 49 74 55 130 4 36 8 67 10 70 2 3 6 35 9 72 4
37 8 75 10 85 2 10 7 47 12 83 4 36 8 67 9 70 2 8 19 154 20 167 0 11 151 133
164 133 3 -1 19 -22 35 -48 159 -254 387 -463 643 -591 76 -38 253 -105 253
-96 0 2 12 0 28 -6 79 -31 353 -51 462 -35 19 3 53 8 74 11 285 41 590 204
811 436 81 85 168 196 220 279 15 25 29 47 31 48 1 2 38 -22 81 -54 43 -32 79
-59 81 -60 4 -2 6 -18 27 -184 9 -69 18 -138 20 -155 3 -16 7 -55 11 -85 22
-192 29 -216 86 -282 29 -35 56 -65 59 -68 3 -3 49 -57 103 -120 54 -63 111
-121 127 -128 61 -26 119 41 88 100 -7 13 -68 88 -137 168 -69 80 -131 152
-139 161 -15 17 -17 28 -27 99 -13 99 -37 288 -42 330 -3 25 -7 56 -9 70 -2
14 -7 52 -10 85 -4 33 -13 70 -21 83 -8 12 -58 54 -112 93 -53 40 -101 75
-105 79 -5 4 1 30 13 56 65 146 125 347 145 494 3 19 9 64 14 100 9 65 7 433
-3 480 -10 49 -36 205 -36 218 0 6 8 12 18 12 19 0 37 -26 244 -333 74 -110
108 -152 132 -162 44 -20 589 -164 606 -161 73 12 92 103 29 136 -11 6 -142
44 -292 84 l-272 72 -160 236 c-88 130 -169 246 -180 258 -18 20 -27 22 -97
17 l-76 -4 -22 61 c-30 82 -104 239 -129 275 -12 16 -21 33 -21 38 0 9 39 54
119 138 165 173 172 181 167 227 -3 24 -32 164 -66 312 -33 148 -60 277 -60
285 1 9 70 69 154 134 203 157 217 171 211 211 -9 54 -59 80 -107 55 -19 -10
-234 -175 -348 -267 -30 -24 -60 -54 -66 -66 -9 -17 0 -71 47 -281 63 -278 63
-280 74 -338 7 -36 4 -41 -46 -95 -192 -207 -200 -214 -205 -179 0 7 -4 35 -8
62 -10 83 -62 205 -119 280 -17 22 -61 72 -98 110 -58 61 -68 76 -72 115 -8
68 -62 206 -109 278 -71 110 -195 225 -296 276 -23 12 -32 22 -28 32 3 9 41
70 84 137 44 67 86 142 94 167 18 53 24 221 9 248 -15 28 -67 45 -94 30 -36
-19 -44 -38 -46 -114 -3 -120 -5 -124 -115 -292 l-85 -130 -73 14 c-138 27
-318 22 -430 -12 -13 -4 -37 26 -101 123 -112 171 -109 164 -114 262 -6 108
-16 137 -55 150 -17 6 -31 11 -32 10 -1 0 -10 -4 -21 -8z"/>
</g>
</svg>
